<svg viewBox="91.25 125 192.96 123.06" version="1.0" preserveAspectRatio="xMidYMid meet" zoomAndPan="magnify" xmlns:xlink="http://www.w3.org/1999/xlink" xmlns="http://www.w3.org/2000/svg"><defs><g></g><clipPath id="59b9ad5418"><path clip-rule="nonzero" d="M 135.867188 140 L 186 140 L 186 194.738281 L 135.867188 194.738281 Z M 135.867188 140"></path></clipPath><clipPath id="fcd6dfef5f"><path clip-rule="nonzero" d="M 189 140 L 239.367188 140 L 239.367188 194.738281 L 189 194.738281 Z M 189 140"></path></clipPath></defs><g clip-path="url(#59b9ad5418)"><path fill-rule="nonzero" fill-opacity="1" d="M 164.226562 159.238281 C 165.289062 158.945312 166.390625 159.5625 166.683594 160.625 C 169.0625 169.195312 176.511719 175.386719 185.230469 176.296875 L 185.230469 146.691406 C 185.230469 143.328125 182.507812 140.597656 179.144531 140.597656 L 141.945312 140.597656 C 138.582031 140.597656 135.855469 143.328125 135.855469 146.691406 L 135.855469 188.285156 C 135.855469 191.648438 138.582031 194.371094 141.945312 194.371094 L 179.144531 194.371094 C 182.507812 194.371094 185.230469 191.648438 185.230469 188.285156 L 185.230469 180.308594 C 174.722656 179.378906 165.695312 171.980469 162.839844 161.691406 C 162.546875 160.628906 163.164062 159.535156 164.226562 159.238281 Z M 176.027344 156.796875 C 177.523438 156.796875 178.738281 158.023438 178.738281 159.539062 C 178.738281 161.046875 177.523438 162.277344 176.027344 162.277344 C 174.527344 162.277344 173.308594 161.046875 173.308594 159.539062 C 173.308594 158.023438 174.527344 156.796875 176.027344 156.796875 Z M 176.027344 156.796875" fill="#8c98ab"></path></g><path fill-rule="nonzero" fill-opacity="1" d="M 172.6875 140.597656 L 168.703125 140.597656 L 168.703125 137.140625 C 168.703125 132.644531 165.042969 128.984375 160.546875 128.984375 C 156.050781 128.984375 152.390625 132.644531 152.390625 137.140625 L 152.390625 140.597656 L 148.40625 140.597656 L 148.40625 137.140625 C 148.40625 130.445312 153.855469 125 160.546875 125 C 167.238281 125 172.691406 130.449219 172.691406 137.140625 L 172.691406 140.597656 Z M 172.6875 140.597656" fill="#000000"></path><g clip-path="url(#fcd6dfef5f)"><path fill-rule="nonzero" fill-opacity="1" d="M 233.011719 140.597656 L 195.8125 140.597656 C 192.449219 140.597656 189.722656 143.328125 189.722656 146.691406 L 189.722656 176.304688 C 198.441406 175.390625 205.894531 169.195312 208.277344 160.625 C 208.570312 159.5625 209.667969 158.941406 210.726562 159.238281 C 211.789062 159.535156 212.414062 160.628906 212.121094 161.691406 C 209.261719 171.980469 200.234375 179.382812 189.722656 180.308594 L 189.722656 188.285156 C 189.722656 191.648438 192.449219 194.371094 195.8125 194.371094 L 233.011719 194.371094 C 236.375 194.371094 239.101562 191.648438 239.101562 188.285156 L 239.101562 146.691406 C 239.101562 143.328125 236.375 140.597656 233.011719 140.597656 Z M 198.933594 162.277344 C 197.433594 162.277344 196.21875 161.046875 196.21875 159.539062 C 196.21875 158.023438 197.433594 156.796875 198.933594 156.796875 C 200.429688 156.796875 201.648438 158.023438 201.648438 159.539062 C 201.648438 161.046875 200.429688 162.277344 198.933594 162.277344 Z M 198.933594 162.277344" fill="#000000"></path></g><path fill-rule="nonzero" fill-opacity="1" d="M 226.558594 140.597656 L 222.574219 140.597656 L 222.574219 137.140625 C 222.574219 132.644531 218.914062 128.984375 214.417969 128.984375 C 209.921875 128.984375 206.261719 132.644531 206.261719 137.140625 L 206.261719 140.597656 L 202.277344 140.597656 L 202.277344 137.140625 C 202.277344 130.445312 207.726562 125 214.417969 125 C 221.113281 125 226.5625 130.449219 226.5625 137.140625 L 226.5625 140.597656 Z M 226.558594 140.597656" fill="#000000"></path><g fill-opacity="1" fill="#000000"><g transform="translate(89.753887, 229.286968)"><g><path d="M 10.984375 -9.203125 L 5.671875 -10.46875 C 4.203125 -10.8125 3.140625 -11.410156 2.484375 -12.265625 C 1.828125 -13.117188 1.5 -14.300781 1.5 -15.8125 C 1.5 -18.03125 2.132812 -19.664062 3.40625 -20.71875 C 4.675781 -21.769531 6.65625 -22.296875 9.34375 -22.296875 C 10.46875 -22.296875 11.476562 -22.242188 12.375 -22.140625 C 13.269531 -22.035156 14.101562 -21.878906 14.875 -21.671875 L 14.875 -18.96875 C 13.894531 -19.195312 12.960938 -19.359375 12.078125 -19.453125 C 11.191406 -19.546875 10.269531 -19.59375 9.3125 -19.59375 C 7.507812 -19.59375 6.242188 -19.332031 5.515625 -18.8125 C 4.796875 -18.289062 4.4375 -17.363281 4.4375 -16.03125 C 4.4375 -15.1875 4.601562 -14.546875 4.9375 -14.109375 C 5.28125 -13.679688 5.835938 -13.375 6.609375 -13.1875 L 11.90625 -11.9375 C 13.769531 -11.488281 15.007812 -10.863281 15.625 -10.0625 C 16.25 -9.257812 16.5625 -8.015625 16.5625 -6.328125 C 16.5625 -3.929688 15.9375 -2.226562 14.6875 -1.21875 C 13.4375 -0.21875 11.457031 0.28125 8.75 0.28125 C 7.320312 0.28125 5.945312 0.1875 4.625 0 C 3.3125 -0.1875 2.269531 -0.429688 1.5 -0.734375 L 1.5 -3.53125 C 2.601562 -3.207031 3.769531 -2.957031 5 -2.78125 C 6.238281 -2.601562 7.488281 -2.515625 8.75 -2.515625 C 10.5 -2.515625 11.722656 -2.769531 12.421875 -3.28125 C 13.117188 -3.800781 13.46875 -4.796875 13.46875 -6.265625 C 13.46875 -7.171875 13.296875 -7.828125 12.953125 -8.234375 C 12.617188 -8.648438 11.960938 -8.972656 10.984375 -9.203125 Z M 10.984375 -9.203125"></path></g></g></g><g fill-opacity="1" fill="#000000"><g transform="translate(111.484908, 229.286968)"><g><path d="M 3.4375 0 L 0.28125 0 L 8.953125 -21.9375 L 12.046875 -21.9375 L 20.609375 0 L 17.46875 0 L 15.46875 -5.28125 L 5.421875 -5.28125 Z M 10.4375 -19.21875 C 10.195312 -18.394531 9.921875 -17.53125 9.609375 -16.625 C 9.296875 -15.71875 8.972656 -14.804688 8.640625 -13.890625 L 6.40625 -7.90625 L 14.484375 -7.90625 L 12.25 -13.890625 C 11.78125 -15.171875 11.410156 -16.207031 11.140625 -17 C 10.878906 -17.800781 10.644531 -18.539062 10.4375 -19.21875 Z M 10.4375 -19.21875"></path></g></g></g><g fill-opacity="1" fill="#000000"><g transform="translate(136.505179, 229.286968)"><g><path d="M 5.5 0 L 2.515625 0 L 2.515625 -21.9375 L 5.5 -21.9375 L 5.5 -12.5 L 16.96875 -12.5 L 16.96875 -21.9375 L 19.953125 -21.9375 L 19.953125 0 L 16.96875 0 L 16.96875 -9.765625 L 5.5 -9.765625 Z M 5.5 0"></path></g></g></g><g fill-opacity="1" fill="#000000"><g transform="translate(163.0651, 229.286968)"><g><path d="M 15.953125 -2.796875 L 15.953125 0 L 2.515625 0 L 2.515625 -21.9375 L 5.5 -21.9375 L 5.5 -2.796875 Z M 15.953125 -2.796875"></path></g></g></g><g fill-opacity="1" fill="#000000"><g transform="translate(183.676378, 229.286968)"><g></g></g></g><g fill-opacity="1" fill="#000000"><g transform="translate(193.755028, 229.286968)"><g><path d="M 10.984375 -9.203125 L 5.671875 -10.46875 C 4.203125 -10.8125 3.140625 -11.410156 2.484375 -12.265625 C 1.828125 -13.117188 1.5 -14.300781 1.5 -15.8125 C 1.5 -18.03125 2.132812 -19.664062 3.40625 -20.71875 C 4.675781 -21.769531 6.65625 -22.296875 9.34375 -22.296875 C 10.46875 -22.296875 11.476562 -22.242188 12.375 -22.140625 C 13.269531 -22.035156 14.101562 -21.878906 14.875 -21.671875 L 14.875 -18.96875 C 13.894531 -19.195312 12.960938 -19.359375 12.078125 -19.453125 C 11.191406 -19.546875 10.269531 -19.59375 9.3125 -19.59375 C 7.507812 -19.59375 6.242188 -19.332031 5.515625 -18.8125 C 4.796875 -18.289062 4.4375 -17.363281 4.4375 -16.03125 C 4.4375 -15.1875 4.601562 -14.546875 4.9375 -14.109375 C 5.28125 -13.679688 5.835938 -13.375 6.609375 -13.1875 L 11.90625 -11.9375 C 13.769531 -11.488281 15.007812 -10.863281 15.625 -10.0625 C 16.25 -9.257812 16.5625 -8.015625 16.5625 -6.328125 C 16.5625 -3.929688 15.9375 -2.226562 14.6875 -1.21875 C 13.4375 -0.21875 11.457031 0.28125 8.75 0.28125 C 7.320312 0.28125 5.945312 0.1875 4.625 0 C 3.3125 -0.1875 2.269531 -0.429688 1.5 -0.734375 L 1.5 -3.53125 C 2.601562 -3.207031 3.769531 -2.957031 5 -2.78125 C 6.238281 -2.601562 7.488281 -2.515625 8.75 -2.515625 C 10.5 -2.515625 11.722656 -2.769531 12.421875 -3.28125 C 13.117188 -3.800781 13.46875 -4.796875 13.46875 -6.265625 C 13.46875 -7.171875 13.296875 -7.828125 12.953125 -8.234375 C 12.617188 -8.648438 11.960938 -8.972656 10.984375 -9.203125 Z M 10.984375 -9.203125"></path></g></g></g><g fill-opacity="1" fill="#000000"><g transform="translate(215.486053, 229.286968)"><g><path d="M 18.0625 -21.9375 L 18.0625 -19.25 L 10.78125 -19.25 L 10.78125 0 L 7.8125 0 L 7.8125 -19.25 L 0.53125 -19.25 L 0.53125 -21.9375 Z M 18.0625 -21.9375"></path></g></g></g><g fill-opacity="1" fill="#000000"><g transform="translate(238.161856, 229.286968)"><g><path d="M 21.140625 -11.03125 C 21.140625 -7.039062 20.375 -4.15625 18.84375 -2.375 C 17.320312 -0.601562 14.832031 0.28125 11.375 0.28125 C 7.664062 0.28125 5.101562 -0.539062 3.6875 -2.1875 C 2.28125 -3.832031 1.578125 -6.78125 1.578125 -11.03125 C 1.578125 -14.988281 2.34375 -17.851562 3.875 -19.625 C 5.414062 -21.40625 7.914062 -22.296875 11.375 -22.296875 C 15.082031 -22.296875 17.632812 -21.472656 19.03125 -19.828125 C 20.4375 -18.179688 21.140625 -15.25 21.140625 -11.03125 Z M 5.640625 -4.6875 C 6.078125 -3.894531 6.726562 -3.332031 7.59375 -3 C 8.457031 -2.675781 9.71875 -2.515625 11.375 -2.515625 C 13.96875 -2.515625 15.738281 -3.140625 16.6875 -4.390625 C 17.644531 -5.640625 18.125 -7.851562 18.125 -11.03125 C 18.125 -12.613281 18.039062 -13.910156 17.875 -14.921875 C 17.71875 -15.941406 17.460938 -16.765625 17.109375 -17.390625 C 16.671875 -18.179688 16.023438 -18.742188 15.171875 -19.078125 C 14.316406 -19.421875 13.050781 -19.59375 11.375 -19.59375 C 8.757812 -19.59375 6.972656 -18.960938 6.015625 -17.703125 C 5.054688 -16.441406 4.578125 -14.21875 4.578125 -11.03125 C 4.578125 -9.4375 4.660156 -8.128906 4.828125 -7.109375 C 4.992188 -6.097656 5.265625 -5.289062 5.640625 -4.6875 Z M 5.640625 -4.6875"></path></g></g></g><g fill-opacity="1" fill="#000000"><g transform="translate(264.966732, 229.286968)"><g><path d="M 5.5 -7.875 L 5.5 0 L 2.515625 0 L 2.515625 -21.9375 L 9.96875 -21.9375 C 13.070312 -21.9375 15.296875 -21.40625 16.640625 -20.34375 C 17.984375 -19.289062 18.65625 -17.535156 18.65625 -15.078125 C 18.65625 -13.171875 18.226562 -11.648438 17.375 -10.515625 C 16.519531 -9.378906 15.234375 -8.613281 13.515625 -8.21875 L 19.25 0 L 15.6875 0 L 10.359375 -7.875 Z M 15.640625 -15.078125 C 15.640625 -16.578125 15.207031 -17.644531 14.34375 -18.28125 C 13.488281 -18.925781 12.03125 -19.25 9.96875 -19.25 L 5.5 -19.25 L 5.5 -10.5 L 9.96875 -10.5 C 11.976562 -10.5 13.425781 -10.859375 14.3125 -11.578125 C 15.195312 -12.304688 15.640625 -13.472656 15.640625 -15.078125 Z M 15.640625 -15.078125"></path></g></g></g><g fill-opacity="1" fill="#000000"><g transform="translate(122.166609, 248.013178)"><g><path d="M 6.984375 0 L 5.796875 0 L 5.796875 -2.890625 L 2.09375 -2.890625 L 2.09375 0 L 0.921875 0 L 0.921875 -6.984375 L 2.09375 -6.984375 L 2.09375 -3.953125 L 5.796875 -3.953125 L 5.796875 -6.984375 L 6.984375 -6.984375 Z M 6.984375 0"></path></g></g></g><g fill-opacity="1" fill="#000000"><g transform="translate(133.062956, 248.013178)"><g><path d="M 5.4375 -1.578125 L 1.90625 -1.578125 L 1.234375 0 L 0.015625 0 L 3.09375 -6.984375 L 4.296875 -6.984375 L 7.359375 0 L 6.09375 0 Z M 4.984375 -2.625 L 3.671875 -5.734375 L 2.34375 -2.625 Z M 4.984375 -2.625"></path></g></g></g><g fill-opacity="1" fill="#000000"><g transform="translate(143.430128, 248.013178)"><g><path d="M 0.921875 -6.984375 L 3.703125 -6.984375 C 4.578125 -6.984375 5.253906 -6.773438 5.734375 -6.359375 C 6.222656 -5.941406 6.46875 -5.359375 6.46875 -4.609375 C 6.46875 -3.816406 6.222656 -3.203125 5.734375 -2.765625 C 5.253906 -2.328125 4.578125 -2.109375 3.703125 -2.109375 L 2.09375 -2.109375 L 2.09375 0 L 0.921875 0 Z M 2.09375 -5.9375 L 2.09375 -3.171875 L 3.65625 -3.171875 C 4.78125 -3.171875 5.34375 -3.640625 5.34375 -4.578125 C 5.34375 -5.484375 4.78125 -5.9375 3.65625 -5.9375 Z M 2.09375 -5.9375"></path></g></g></g><g fill-opacity="1" fill="#000000"><g transform="translate(153.148316, 248.013178)"><g><path d="M 0.921875 -6.984375 L 3.703125 -6.984375 C 4.578125 -6.984375 5.253906 -6.773438 5.734375 -6.359375 C 6.222656 -5.941406 6.46875 -5.359375 6.46875 -4.609375 C 6.46875 -3.816406 6.222656 -3.203125 5.734375 -2.765625 C 5.253906 -2.328125 4.578125 -2.109375 3.703125 -2.109375 L 2.09375 -2.109375 L 2.09375 0 L 0.921875 0 Z M 2.09375 -5.9375 L 2.09375 -3.171875 L 3.65625 -3.171875 C 4.78125 -3.171875 5.34375 -3.640625 5.34375 -4.578125 C 5.34375 -5.484375 4.78125 -5.9375 3.65625 -5.9375 Z M 2.09375 -5.9375"></path></g></g></g><g fill-opacity="1" fill="#000000"><g transform="translate(162.866506, 248.013178)"><g><path d="M 3.78125 -2.328125 L 3.78125 0 L 2.609375 0 L 2.609375 -2.28125 L 0.015625 -6.984375 L 1.203125 -6.984375 L 3.1875 -3.578125 L 5.15625 -6.984375 L 6.34375 -6.984375 Z M 3.78125 -2.328125"></path></g></g></g><g fill-opacity="1" fill="#000000"><g transform="translate(172.225261, 248.013178)"><g></g></g></g><g fill-opacity="1" fill="#000000"><g transform="translate(177.799912, 248.013178)"><g><path d="M 3.21875 -7.046875 C 4.125 -7.046875 4.9375 -6.800781 5.65625 -6.3125 L 5.171875 -5.28125 C 4.460938 -5.71875 3.78125 -5.9375 3.125 -5.9375 C 2.769531 -5.9375 2.488281 -5.867188 2.28125 -5.734375 C 2.082031 -5.609375 1.984375 -5.429688 1.984375 -5.203125 C 1.984375 -4.972656 2.078125 -4.773438 2.265625 -4.609375 C 2.453125 -4.441406 2.6875 -4.320312 2.96875 -4.25 C 3.25 -4.175781 3.550781 -4.078125 3.875 -3.953125 C 4.195312 -3.835938 4.5 -3.710938 4.78125 -3.578125 C 5.0625 -3.453125 5.289062 -3.25 5.46875 -2.96875 C 5.65625 -2.695312 5.75 -2.367188 5.75 -1.984375 C 5.75 -1.367188 5.503906 -0.875 5.015625 -0.5 C 4.523438 -0.132812 3.890625 0.046875 3.109375 0.046875 C 2.578125 0.046875 2.0625 -0.0507812 1.5625 -0.25 C 1.0625 -0.457031 0.628906 -0.726562 0.265625 -1.0625 L 0.765625 -2.09375 C 1.117188 -1.757812 1.503906 -1.503906 1.921875 -1.328125 C 2.347656 -1.148438 2.753906 -1.0625 3.140625 -1.0625 C 3.546875 -1.0625 3.863281 -1.132812 4.09375 -1.28125 C 4.320312 -1.4375 4.4375 -1.648438 4.4375 -1.921875 C 4.4375 -2.160156 4.34375 -2.359375 4.15625 -2.515625 C 3.976562 -2.679688 3.75 -2.800781 3.46875 -2.875 C 3.1875 -2.957031 2.878906 -3.050781 2.546875 -3.15625 C 2.222656 -3.269531 1.921875 -3.382812 1.640625 -3.5 C 1.367188 -3.625 1.140625 -3.820312 0.953125 -4.09375 C 0.765625 -4.375 0.671875 -4.707031 0.671875 -5.09375 C 0.671875 -5.6875 0.898438 -6.160156 1.359375 -6.515625 C 1.828125 -6.867188 2.445312 -7.046875 3.21875 -7.046875 Z M 3.21875 -7.046875"></path></g></g></g><g fill-opacity="1" fill="#000000"><g transform="translate(187.008898, 248.013178)"><g><path d="M 6.984375 0 L 5.796875 0 L 5.796875 -2.890625 L 2.09375 -2.890625 L 2.09375 0 L 0.921875 0 L 0.921875 -6.984375 L 2.09375 -6.984375 L 2.09375 -3.953125 L 5.796875 -3.953125 L 5.796875 -6.984375 L 6.984375 -6.984375 Z M 6.984375 0"></path></g></g></g><g fill-opacity="1" fill="#000000"><g transform="translate(197.905246, 248.013178)"><g><path d="M 1.40625 -6 C 2.113281 -6.675781 2.988281 -7.015625 4.03125 -7.015625 C 5.082031 -7.015625 5.960938 -6.675781 6.671875 -6 C 7.390625 -5.332031 7.75 -4.5 7.75 -3.5 C 7.75 -2.5 7.390625 -1.65625 6.671875 -0.96875 C 5.960938 -0.289062 5.082031 0.046875 4.03125 0.046875 C 2.988281 0.046875 2.113281 -0.289062 1.40625 -0.96875 C 0.695312 -1.65625 0.34375 -2.5 0.34375 -3.5 C 0.34375 -4.5 0.695312 -5.332031 1.40625 -6 Z M 4.046875 -5.953125 C 3.359375 -5.953125 2.765625 -5.710938 2.265625 -5.234375 C 1.773438 -4.765625 1.53125 -4.179688 1.53125 -3.484375 C 1.53125 -2.796875 1.78125 -2.210938 2.28125 -1.734375 C 2.78125 -1.253906 3.367188 -1.015625 4.046875 -1.015625 C 4.734375 -1.015625 5.320312 -1.253906 5.8125 -1.734375 C 6.300781 -2.210938 6.546875 -2.796875 6.546875 -3.484375 C 6.546875 -4.179688 6.300781 -4.765625 5.8125 -5.234375 C 5.320312 -5.710938 4.734375 -5.953125 4.046875 -5.953125 Z M 4.046875 -5.953125"></path></g></g></g><g fill-opacity="1" fill="#000000"><g transform="translate(208.991303, 248.013178)"><g><path d="M 0.921875 -6.984375 L 3.703125 -6.984375 C 4.578125 -6.984375 5.253906 -6.773438 5.734375 -6.359375 C 6.222656 -5.941406 6.46875 -5.359375 6.46875 -4.609375 C 6.46875 -3.816406 6.222656 -3.203125 5.734375 -2.765625 C 5.253906 -2.328125 4.578125 -2.109375 3.703125 -2.109375 L 2.09375 -2.109375 L 2.09375 0 L 0.921875 0 Z M 2.09375 -5.9375 L 2.09375 -3.171875 L 3.65625 -3.171875 C 4.78125 -3.171875 5.34375 -3.640625 5.34375 -4.578125 C 5.34375 -5.484375 4.78125 -5.9375 3.65625 -5.9375 Z M 2.09375 -5.9375"></path></g></g></g><g fill-opacity="1" fill="#000000"><g transform="translate(218.709488, 248.013178)"><g><path d="M 0.921875 -6.984375 L 3.703125 -6.984375 C 4.578125 -6.984375 5.253906 -6.773438 5.734375 -6.359375 C 6.222656 -5.941406 6.46875 -5.359375 6.46875 -4.609375 C 6.46875 -3.816406 6.222656 -3.203125 5.734375 -2.765625 C 5.253906 -2.328125 4.578125 -2.109375 3.703125 -2.109375 L 2.09375 -2.109375 L 2.09375 0 L 0.921875 0 Z M 2.09375 -5.9375 L 2.09375 -3.171875 L 3.65625 -3.171875 C 4.78125 -3.171875 5.34375 -3.640625 5.34375 -4.578125 C 5.34375 -5.484375 4.78125 -5.9375 3.65625 -5.9375 Z M 2.09375 -5.9375"></path></g></g></g><g fill-opacity="1" fill="#000000"><g transform="translate(228.427672, 248.013178)"><g><path d="M 2.09375 0 L 0.921875 0 L 0.921875 -6.984375 L 2.09375 -6.984375 Z M 2.09375 0"></path></g></g></g><g fill-opacity="1" fill="#000000"><g transform="translate(234.441634, 248.013178)"><g><path d="M 6.984375 0 L 5.828125 0 L 2.09375 -5.015625 L 2.09375 0 L 0.921875 0 L 0.921875 -6.984375 L 2.078125 -6.984375 L 5.828125 -1.96875 L 5.828125 -6.984375 L 6.984375 -6.984375 Z M 6.984375 0"></path></g></g></g><g fill-opacity="1" fill="#000000"><g transform="translate(245.347967, 248.013178)"><g><path d="M 5.703125 -3.4375 L 6.734375 -3.4375 L 6.734375 -0.859375 C 6.367188 -0.585938 5.941406 -0.367188 5.453125 -0.203125 C 4.960938 -0.0351562 4.484375 0.046875 4.015625 0.046875 C 2.984375 0.046875 2.113281 -0.289062 1.40625 -0.96875 C 0.695312 -1.65625 0.34375 -2.5 0.34375 -3.5 C 0.34375 -4.5 0.703125 -5.332031 1.421875 -6 C 2.140625 -6.675781 3.023438 -7.015625 4.078125 -7.015625 C 4.578125 -7.015625 5.0625 -6.925781 5.53125 -6.75 C 6.007812 -6.570312 6.421875 -6.335938 6.765625 -6.046875 L 6.09375 -5.171875 C 5.519531 -5.703125 4.847656 -5.96875 4.078125 -5.96875 C 3.367188 -5.96875 2.765625 -5.726562 2.265625 -5.25 C 1.773438 -4.769531 1.53125 -4.1875 1.53125 -3.5 C 1.53125 -2.800781 1.78125 -2.210938 2.28125 -1.734375 C 2.78125 -1.253906 3.382812 -1.015625 4.09375 -1.015625 C 4.632812 -1.015625 5.171875 -1.171875 5.703125 -1.484375 Z M 5.703125 -3.4375"></path></g></g></g></svg>